<?xml version="1.0" encoding="utf-8"?>
<!-- Generator: Adobe Illustrator 25.1.0, SVG Export Plug-In . SVG Version: 6.00 Build 0)  -->
<svg version="1.1" id="Layer_3_xA0_Image_1_" xmlns="http://www.w3.org/2000/svg" xmlns:xlink="http://www.w3.org/1999/xlink"
	 x="0px" y="0px" viewBox="0 0 637.2 101.9" style="enable-background:new 0 0 637.2 101.9;" xml:space="preserve">
<style type="text/css">
	.st0{fill:#FFFFFF;}
	.st1{font-family:'Arial-BoldMT';}
	.st2{font-size:30px;}
	.st3{font-size:51.1857px;}
	.st4{font-size:82.9651px;}
	.st5{letter-spacing:24;}
	.st6{font-size:80.2739px;}
	.st7{letter-spacing:-3;}
	.st8{letter-spacing:-16;}
	.st9{fill:#DD2E44;}
</style>
<text transform="matrix(1 0 0 1 61.8751 42.0529)" class="st0 st1 st2">ensouda</text>
<text transform="matrix(1 0 0 1 60.6343 79.3045)" class="st0 st1 st3">reton</text>
<text transform="matrix(1 0 0 1 4.4703 79.7459)" class="st0 st1 st4 st5">B</text>
<text transform="matrix(1 0 0 1 202.0857 78.4608)"><tspan x="0" y="0" class="st0 st1 st6 st7">C  </tspan><tspan x="92.9" y="0" class="st0 st1 st6 st8"> </tspan><tspan x="99.2" y="0" class="st0 st1 st6 st7">nsultants</tspan></text>
<path class="st9" d="M301.4,60.4c0-0.8-3.2-0.6-3.5-1.1c-0.3-0.6,3.5-5.1,3-6.1c-0.6-1-5.6,1.3-5.9,0.8c-0.3-0.5,0.3-3.9-0.2-4.3
	c-0.6-0.4-5.8,5.4-6.5,4.7c-0.7-0.7,1.7-11.6,1.2-11.8c-0.5-0.2-3.8,1.5-4.2,1.4c-0.4-0.1-3-6.8-3.7-6.8s-3.3,6.7-3.7,6.8
	c-0.4,0.1-3.7-1.6-4.2-1.4c-0.5,0.2,1.9,11.1,1.2,11.8c-0.7,0.7-6-5.2-6.5-4.7c-0.6,0.4,0.1,3.8-0.2,4.3c-0.3,0.5-5.4-1.8-5.9-0.8
	c-0.6,1,3.2,5.5,3,6.1c-0.3,0.6-3.5,0.3-3.5,1.1s9.3,5.8,9.9,6.4c0.6,0.6-3.2,3.1-2.7,3.6c0.6,0.5,4.2-0.9,11.5-1.1V76
	c0,0.6,0.5,1.1,1.1,1.1s1.1-0.5,1.1-1.1v-6.7c7.3,0.1,10.9,1.6,11.5,1.1c0.5-0.5-3.3-3-2.7-3.6C292.1,66.2,301.4,61.2,301.4,60.4z"
	/>
<text transform="matrix(1 0 0 1 1502 1495)"><tspan x="0" y="0" class="st1" style="fill:#101113; font-size:200px; letter-spacing:-8;">C  </tspan><tspan x="231.6" y="0" class="st1" style="fill:#101113; font-size:200px; letter-spacing:-40;"> </tspan><tspan x="247.1" y="0" class="st1" style="fill:#101113; font-size:200px; letter-spacing:-8;">nsultants</tspan></text>
</svg>
