<svg xmlns="http://www.w3.org/2000/svg" width="81.941" height="78.364" viewBox="0 0 81.941 78.364">
  <g id="Gruppe_8157" data-name="Gruppe 8157" transform="translate(-234.207 -624.234)">
    <path id="Pfad_30309" data-name="Pfad 30309" d="M.687,33.335C-1.092,22.644-.5,4.945,15.885,4.279s17.321-6.6,28.278-3.27S65.148,30.893,61.388,46.688c-2.015,8.466-20.672,24.319-36.054,19.985C12.089,62.941,1.8,40.03.687,33.335Z" transform="translate(251.35 702.598) rotate(-106)" fill="#c9e7e2"/>
    <g id="Gruppe_8098" data-name="Gruppe 8098" transform="translate(256.195 646.796)">
      <path id="Pfad_3999" data-name="Pfad 3999" d="M321.1,12.745A17.7,17.7,0,0,0,319.331,7.8l-.006-.012c-.317-.629-.648-1.238-.968-1.83-1.046-1.93-2.034-3.754-2.111-5.413-.176-3.774,1.456-5.264,1.521-5.321a.685.685,0,0,0,.209-.766A.7.7,0,0,0,317.317-6H296.536a.7.7,0,0,0-.661.454.68.68,0,0,0,.207.763c.07.061,1.7,1.552,1.526,5.325-.077,1.659-1.065,3.483-2.111,5.413-.321.592-.651,1.2-.968,1.83l-.006.012a17.149,17.149,0,0,0-1.824,5.286c0,.019-.006.039-.008.058a10.807,10.807,0,0,0-.081,2.181,29.239,29.239,0,0,0,.649,4.307.693.693,0,0,0,1.354-.3,27.918,27.918,0,0,1-.62-4.1c-.015-.234-.021-.466-.018-.695l9.858,7.575a4.659,4.659,0,0,0,2.4.909v5.09h-8.842c-.254-.626-.756-1.905-1.3-3.512a.693.693,0,0,0-1.315.441c.788,2.35,1.48,3.97,1.509,4.037a.694.694,0,0,0,.637.42h20a.694.694,0,0,0,.637-.42c.134-.312,3.286-7.726,3.681-13.754a10.913,10.913,0,0,0-.136-2.541c0-.013,0-.025-.006-.038ZM298.993.607a9.5,9.5,0,0,0-1.072-5.22h18.012A9.5,9.5,0,0,0,314.86.607c.092,1.976,1.153,3.935,2.276,6.009.234.432.469.866.7,1.3-2.52,1.848-6.542,2.94-10.908,2.94s-8.388-1.092-10.908-2.94c.229-.438.464-.872.7-1.3,1.124-2.074,2.185-4.033,2.277-6.009Zm-4.865,12.3a14.9,14.9,0,0,1,1.264-3.731c2.764,1.934,6.994,3.071,11.535,3.071s8.771-1.138,11.535-3.071a15.428,15.428,0,0,1,1.2,3.407l-11.054,8.493a3.455,3.455,0,0,1-3.931-.063Zm25.732,2.326c-.328,5-2.728,11.222-3.4,12.879H307.62V22.964a4.255,4.255,0,0,0,1.833-.789l10.415-8a9.318,9.318,0,0,1-.008,1.06Zm0,0" transform="translate(-289.494 6)" fill="#1c9d87" stroke="#1c9d87" stroke-width="0.5" fill-rule="evenodd"/>
      <path id="Pfad_4000" data-name="Pfad 4000" d="M490.1,143.673a.693.693,0,0,0,.693-.693v-2.111a.693.693,0,1,0-1.387,0v2.111a.693.693,0,0,0,.693.693Zm0,0" transform="translate(-472.667 -130.041)" fill="#1c9d87" stroke="#1c9d87" stroke-width="0.5" fill-rule="evenodd"/>
      <path id="Pfad_4001" data-name="Pfad 4001" d="M251.878,47.66a.693.693,0,1,0,.98.98l2.009-2.009a.689.689,0,0,0,0-.982l-2.01-2.01a.693.693,0,1,0-.98.981l.827.826h-4.011a.693.693,0,1,0,0,1.387H252.7Zm0,0" transform="translate(-247.999 -40.009)" fill="#1c9d87" stroke="#1c9d87" stroke-width="0.5" fill-rule="evenodd"/>
      <path id="Pfad_4002" data-name="Pfad 4002" d="M655.156,45.446h-4.011l.826-.826a.693.693,0,0,0-.981-.981l-2.01,2.01a.7.7,0,0,0-.163.731.747.747,0,0,0,.163.25l2.01,2.01a.693.693,0,0,0,.981-.98l-.827-.827h4.011a.693.693,0,1,0,0-1.387Zm0,0" transform="translate(-620.986 -40.009)" fill="#1c9d87" stroke="#1c9d87" stroke-width="0.5" fill-rule="evenodd"/>
      <path id="Pfad_4003" data-name="Pfad 4003" d="M313.25,391.005a.693.693,0,1,0-.693.693.695.695,0,0,0,.693-.693Zm0,0" transform="translate(-307.434 -362.835)" fill="#1c9d87" stroke="#1c9d87" stroke-width="0.5" fill-rule="evenodd"/>
    </g>
  </g>
</svg>
