<svg xmlns="http://www.w3.org/2000/svg" xmlns:xlink="http://www.w3.org/1999/xlink" width="1925.105" height="941.473" viewBox="0 0 1925.105 941.473">
  <defs>
    <linearGradient id="linear-gradient" x1="0.038" y1="0.036" x2="0.928" y2="0.736" gradientUnits="objectBoundingBox">
      <stop offset="0" stop-color="#37e3a8"/>
      <stop offset="1" stop-color="#1c9d87"/>
    </linearGradient>
    <clipPath id="clip-path">
      <path id="Differenzmenge_16" data-name="Differenzmenge 16" d="M1925.105,941.473h-6.974V726.315c-.1-.032-10.875-3.5-32.458-8.54-12.751-2.976-26.761-5.921-41.64-8.754-18.6-3.541-38.63-6.917-59.529-10.034-53.191-7.933-112.262-14.255-175.57-18.788-37.589-2.692-77.109-4.775-117.464-6.192-44.391-1.558-90.888-2.349-138.2-2.349-57.054,0-116.813,1.148-177.616,3.412-65.933,2.455-134.826,6.288-204.765,11.391-56.818,4.146-113.258,7.268-167.752,9.279-51.118,1.887-101.809,2.844-150.663,2.845-53.451,0-106.114-1.143-156.526-3.4-45.83-2.051-90.824-5.068-133.732-8.967-72.272-6.565-140.051-15.721-201.456-27.212-24.121-4.514-47.306-9.4-68.909-14.534-17.282-4.1-33.6-8.37-48.487-12.679-25.393-7.348-37.954-12.321-38.078-12.37V941.472H0V0H5.787V262.95c133.22-28.062,246.069-59.043,336.744-83.937,30.991-8.508,60.262-16.544,86.13-23.285,41.406-10.779,69.785-17.117,92.017-20.552l.957-.7c39.113-6.281,75.9-10.74,112.479-13.633,35.532-2.811,71.363-4.177,109.542-4.177,8.674,0,17.648.072,26.673.214,20.944.331,41.631,1.08,63.245,2.289,19.321,1.08,39,2.51,60.174,4.37,39.4,3.463,77,7.8,116.8,12.39h.013c46.546,5.369,94.674,10.92,146.947,15.1,28.212,2.254,55.066,3.912,82.095,5.069,30.45,1.3,60.243,1.936,91.081,1.936,32.519,0,66.232-.742,100.2-2.2,36.44-1.57,74.6-4.029,113.43-7.31,33.389-2.822,67.076-6.341,100.126-10.458,31.926-3.978,64.111-8.62,95.663-13.8,30.426-4.994,61.076-10.619,91.1-16.72,28.889-5.87,57.968-12.338,86.429-19.222V0h7.472V941.472Z" transform="translate(-5232 12509.917)" fill="url(#linear-gradient)"/>
    </clipPath>
    <linearGradient id="linear-gradient-8" x1="0.14" y1="0.14" x2="0.241" y2="1.123" gradientUnits="objectBoundingBox">
      <stop offset="0" stop-color="#1c9d87"/>
      <stop offset="1" stop-color="#147060"/>
    </linearGradient>
  </defs>
  <g id="Gruppe_8158" data-name="Gruppe 8158" transform="translate(6 -3280.917)">
    <path id="Differenzmenge_15" data-name="Differenzmenge 15" d="M1925.105,2160.169v0h0c-7.064-2.235-177.023-54.591-566.769-54.591-57.266,0-117.249,1.148-178.284,3.413-66.177,2.455-135.326,6.287-205.527,11.39-57.032,4.146-113.683,7.268-168.379,9.279-51.314,1.887-102.194,2.844-151.226,2.845-53.569,0-106.346-1.139-156.864-3.389-45.934-2.045-91.04-5.053-134.062-8.94-72.486-6.549-140.478-15.683-202.086-27.149-24.223-4.508-47.508-9.392-69.208-14.517-17.381-4.1-33.791-8.372-48.774-12.683-25.672-7.387-38.1-12.278-38.614-12.483V1626.972c133.928-28.089,247.357-59.113,338.5-84.041l.171-.047c31.046-8.491,60.37-16.511,86.285-23.239,41.554-10.777,70.039-17.116,92.362-20.553l.96-.7c39.263-6.282,76.191-10.741,112.9-13.633,35.661-2.81,71.625-4.176,109.947-4.176,8.7,0,17.714.072,26.781.213,21.016.331,41.781,1.08,63.481,2.289,19.411,1.082,39.168,2.511,60.4,4.37,39.551,3.463,77.286,7.8,117.236,12.39l.013,0,.023,0c46.711,5.368,95.013,10.918,147.474,15.094,28.318,2.254,55.272,3.912,82.4,5.069,30.56,1.3,60.465,1.936,91.422,1.936,32.64,0,66.479-.742,100.578-2.2,36.575-1.569,74.881-4.029,113.856-7.311,33.508-2.821,67.321-6.34,100.5-10.458,32.033-3.976,64.34-8.619,96.022-13.8,30.542-4.995,61.307-10.62,91.439-16.72,29-5.87,58.187-12.338,86.754-19.222l.295,707.938Z" transform="translate(-6 1917)" fill="url(#linear-gradient)"/>
    <g id="Gruppe_maskieren_728" data-name="Gruppe maskieren 728" transform="translate(5226 -9229)" clip-path="url(#clip-path)">
      <path id="Pfad_24900" data-name="Pfad 24900" d="M135.406,820.872S-30.05,654.432,8.14,457.762c24.944-128.455,107.654-50.63,103.249-258.875S355.09-31,423.877,29.417s70.243,99.017,212.283,75.026,203.853,159.1,130.261,312.927c-64.445,134.7,124.791,120.6,0,405.559Z" transform="translate(-4130.416 13368.197) rotate(-90)" opacity="0.22" fill="url(#linear-gradient-8)"/>
    </g>
  </g>
</svg>
