<svg xmlns="http://www.w3.org/2000/svg" viewBox="0 0 128 123"><defs><style>.a{fill:#2ecf96;}.b{fill:#fff;}</style></defs><path class="a" d="M80.68,115c-18.33,8.63-50.52,16.61-60.18-12.24S-.34,75.3,0,54.07,43,1.4,73.38,0C89.68-.71,127.86,24.43,128,54,128.12,79.59,92.17,109.63,80.68,115Z"/><path class="b" d="M40.64,90.06A2.08,2.08,0,0,1,40,88.53V83.94a5.3,5.3,0,0,1,2.25-4.23L56.48,65.58Q65.75,58.29,69.4,54.2T73,46.14a9.31,9.31,0,0,0-2.29-6.66q-2.3-2.43-6.89-2.43a9.52,9.52,0,0,0-7.11,2.66,12,12,0,0,0-3.24,6.88,2.59,2.59,0,0,1-1,1.58,2.79,2.79,0,0,1-1.62.49h-8a1.83,1.83,0,0,1-1.35-.54A1.73,1.73,0,0,1,41,46.86a20.86,20.86,0,0,1,2.88-9.94,20,20,0,0,1,7.83-7.47,24.55,24.55,0,0,1,12.06-2.84A27.29,27.29,0,0,1,76,29.09a17.29,17.29,0,0,1,7.51,6.79A19.11,19.11,0,0,1,86,45.69a18.65,18.65,0,0,1-3.37,10.89A52.89,52.89,0,0,1,72.32,67L59.54,80H85.19a2.14,2.14,0,0,1,1.58.59,2.11,2.11,0,0,1,.58,1.57v6.39a2.16,2.16,0,0,1-.58,1.53,2.06,2.06,0,0,1-1.58.63h-43A2.08,2.08,0,0,1,40.64,90.06Z"/></svg>