<svg xmlns="http://www.w3.org/2000/svg" width="1919" height="1007.182" viewBox="0 0 1919 1007.182">
  <path id="Differenzmenge_18" data-name="Differenzmenge 18" d="M1924.809,1047.934h0c-28.55-6.882-57.737-13.349-86.752-19.224-30.141-6.1-60.906-11.727-91.438-16.72-31.673-5.179-63.979-9.822-96.021-13.8-33.173-4.117-66.986-7.636-100.5-10.459-38.953-3.28-77.255-5.738-113.841-7.308-34.112-1.464-67.951-2.206-100.577-2.206-30.963,0-60.875.633-91.445,1.936-27.133,1.156-54.09,2.815-82.411,5.069-52.477,4.177-100.78,9.729-147.492,15.1h-.011c-39.946,4.591-77.677,8.927-117.225,12.39-21.237,1.859-40.994,3.289-60.4,4.37-21.7,1.209-42.467,1.957-63.486,2.289-9.058.142-18.061.213-26.762.213-38.325,0-74.292-1.366-109.956-4.177-36.71-2.893-73.64-7.353-112.9-13.635l-.96-.7c-22.336-3.442-50.823-9.781-92.364-20.553-25.965-6.741-55.349-14.778-86.458-23.287H343.8C252.79,932.338,139.52,901.357,5.81,873.3V326.482c2.405-2.7,15.637-17.18,40-37.092,13.849-11.318,28.914-22.455,44.779-33.1a694.485,694.485,0,0,1,61.93-36.944c54.24-28.706,113.865-51.525,177.218-67.824,18.2-4.682,36.962-8.883,55.767-12.486,19.756-3.785,40.1-7.015,60.471-9.6,21.328-2.706,43.276-4.779,65.235-6.163,22.924-1.444,46.495-2.176,70.057-2.176,28.774,0,58.406,1.091,88.073,3.243,31,2.249,62.908,5.719,94.831,10.315,33.269,4.789,67.483,10.935,101.693,18.265,35.566,7.621,72.124,16.737,108.659,27.094,37.124,10.525,74.213,19.787,110.238,27.531,34.629,7.443,69.2,13.683,102.755,18.545,32.17,4.662,64.267,8.182,95.4,10.464,29.764,2.181,59.428,3.287,88.17,3.287,23.01,0,46-.708,68.322-2.105,21.384-1.338,42.73-3.344,63.446-5.961,19.788-2.5,39.521-5.625,58.652-9.286,18.212-3.486,36.36-7.55,53.939-12.081,61.2-15.773,118.484-37.859,170.26-65.646a641.726,641.726,0,0,0,58.974-35.784c15.068-10.321,29.335-21.119,42.407-32.094,9.714-8.156,18.627-16.283,26.492-24.157,6.222-6.229,9.926-10.447,11.23-11.972V1047.933Z" transform="translate(1924.81 1047.934) rotate(180)" fill="#f5faf9"/>
</svg>
