<svg xmlns="http://www.w3.org/2000/svg" viewBox="0 0 128 123"><defs><style>.a{fill:#2ecf96;}.b{fill:#fff;}</style></defs><path class="a" d="M80.68,115c-18.33,8.63-50.52,16.61-60.18-12.24S-.34,75.3,0,54.07,43,1.4,73.38,0C89.68-.71,127.86,24.43,128,54,128.12,79.59,92.17,109.63,80.68,115Z"/><path class="b" d="M62.43,90.06a2.08,2.08,0,0,1-.63-1.53V41.91L48.12,52.44a1.91,1.91,0,0,1-1.26.45,2.15,2.15,0,0,1-1.8-1L41.28,47a2.58,2.58,0,0,1-.45-1.35,2.15,2.15,0,0,1,1-1.8L62,28.32a3.58,3.58,0,0,1,2.25-.63h7.92a2,2,0,0,1,2.16,2.16V88.53a2.17,2.17,0,0,1-.59,1.53,2,2,0,0,1-1.57.63H64A2.08,2.08,0,0,1,62.43,90.06Z"/></svg>