<svg xmlns="http://www.w3.org/2000/svg" xmlns:xlink="http://www.w3.org/1999/xlink" width="1920" height="1900.089" viewBox="0 0 1920 1900.089">
  <defs>
    <clipPath id="clip-path">
      <rect id="Rechteck_1856" data-name="Rechteck 1856" width="1920" height="1900.089" transform="translate(0 2558)" fill="#fff" stroke="#707070" stroke-width="1"/>
    </clipPath>
  </defs>
  <g id="Gruppe_maskieren_683" data-name="Gruppe maskieren 683" transform="translate(0 -2558)" clip-path="url(#clip-path)">
    <path id="Vereinigungsmenge_35" data-name="Vereinigungsmenge 35" d="M618.514,1582.568c-490.666-68.441-686.665-241.1-597.733-546.115,57.844-198.4,239.013-431.117,557.23-615.473l712.64,116.831q28.677-22.925,58.906-43.77c300.3-206.883,489.609-144.614,787.236-207.316C2397.555,231.778,2550.732,4.906,2865.408.078c97.083-1.49,209.581,18.155,345.3,70.506,362.132,139.693,704.159,497.059,948.076,936.205l-6.66.136,332.064,54.439c-76.339,74.4-184.922,143.783-329.645,204.518-179.528,75.335-451.5,157.937-798.486,183.736-384.078,28.553-533.948-24.554-776.886-27.932-85.469-1.182-161.506,3.089-249.622,15.536l-.96.62c-24.821,3.374-55.708,9.753-92.361,18.147-208.179,47.718-602.3,160.835-1123.56,160.848A3571.79,3571.79,0,0,1,618.514,1582.568Z" transform="translate(-1811.272 2615.94)" fill="#f5faf9" stroke="rgba(0,0,0,0)" stroke-miterlimit="10" stroke-width="1"/>
  </g>
</svg>
