<svg xmlns="http://www.w3.org/2000/svg" viewBox="0 0 128 123"><defs><style>.a{fill:#2ecf96;}.b{fill:#fff;}</style></defs><path class="a" d="M80.68,115c-18.33,8.63-50.52,16.61-60.18-12.24S-.34,75.3,0,54.07,43,1.4,73.38,0C89.68-.71,127.86,24.43,128,54,128.12,79.59,92.17,109.63,80.68,115Z"/><path class="b" d="M50.5,89.07a20.09,20.09,0,0,1-8.28-6.34,14.44,14.44,0,0,1-2.93-7.88,1.59,1.59,0,0,1,.59-1.3,2.08,2.08,0,0,1,1.39-.5h8.1A2.52,2.52,0,0,1,52,74.85Q54,81.33,64,81.33q5.49,0,8.64-2.56a8.93,8.93,0,0,0,3.15-7.34q0-9-11.25-9H55.31a2.19,2.19,0,0,1-1.62-.63,2.08,2.08,0,0,1-.63-1.53V56.49a3.78,3.78,0,0,1,1.26-2.7L70.43,38H44.69a2.15,2.15,0,0,1-2.16-2.16V29.94a2.25,2.25,0,0,1,.59-1.62,2,2,0,0,1,1.57-.63H83.3a2.16,2.16,0,0,1,2.25,2.25v5.4a3.53,3.53,0,0,1-1.17,2.52l-15.57,16,1.08.09q8.64.72,13.73,5.22T88.7,72.06a17.23,17.23,0,0,1-3.19,10.35,20.51,20.51,0,0,1-8.82,6.8A32.37,32.37,0,0,1,64,91.59,32.32,32.32,0,0,1,50.5,89.07Z"/></svg>