<svg xmlns="http://www.w3.org/2000/svg" width="164.703" height="76.125" viewBox="0 0 164.703 76.125">
  <g id="Gruppe_2553" data-name="Gruppe 2553" transform="translate(-124.927 -212.571)">
    <g id="Gruppe_2552" data-name="Gruppe 2552" transform="translate(160.643 243.772)">
      <g id="Gruppe_2551" data-name="Gruppe 2551">
        <path id="Pfad_4942" data-name="Pfad 4942" d="M201.343,303.986a8.6,8.6,0,0,1-2.75-1.855,8.462,8.462,0,0,1-1.863-2.741,8.532,8.532,0,0,1,0-6.618,8.691,8.691,0,0,1,4.613-4.621,8.562,8.562,0,0,1,6.609.008,8.617,8.617,0,0,1,2.75,1.846,8.817,8.817,0,0,1,1.845,2.767,8.561,8.561,0,0,1,.01,6.609,8.629,8.629,0,0,1-4.605,4.6,8.559,8.559,0,0,1-6.609.01Zm4.807-4.332a3.808,3.808,0,0,0,1.248-.826,3.932,3.932,0,0,0,.844-1.248,3.886,3.886,0,0,0,0-2.988,3.952,3.952,0,0,0-.844-1.247,3.815,3.815,0,0,0-1.248-.826,3.922,3.922,0,0,0-1.512-.3,3.882,3.882,0,0,0-2.724,1.125,4.055,4.055,0,0,0-.852,1.247,3.781,3.781,0,0,0,0,2.988,4.033,4.033,0,0,0,.852,1.248,3.882,3.882,0,0,0,2.724,1.125A3.922,3.922,0,0,0,206.15,299.654Z" transform="translate(-196.062 -281.076)" fill="#fff"/>
        <path id="Pfad_4943" data-name="Pfad 4943" d="M242.889,303.986a8.6,8.6,0,0,1-2.75-1.855,8.479,8.479,0,0,1-1.863-2.741,8.544,8.544,0,0,1,0-6.618,8.694,8.694,0,0,1,4.614-4.621,8.562,8.562,0,0,1,6.608.008,8.617,8.617,0,0,1,2.75,1.846,8.818,8.818,0,0,1,1.845,2.767,8.561,8.561,0,0,1,.01,6.609,8.629,8.629,0,0,1-4.605,4.6,8.559,8.559,0,0,1-6.608.01Zm4.807-4.332a3.808,3.808,0,0,0,1.248-.826,3.923,3.923,0,0,0,.843-1.248,3.886,3.886,0,0,0,0-2.988,3.943,3.943,0,0,0-.843-1.247,3.815,3.815,0,0,0-1.248-.826,3.92,3.92,0,0,0-1.512-.3,3.88,3.88,0,0,0-2.724,1.125,4.047,4.047,0,0,0-.853,1.247,3.781,3.781,0,0,0,0,2.988,4.026,4.026,0,0,0,.853,1.248,3.88,3.88,0,0,0,2.724,1.125A3.92,3.92,0,0,0,247.7,299.654Z" transform="translate(-216.749 -281.076)" fill="#fff"/>
        <path id="Pfad_4944" data-name="Pfad 4944" d="M284.434,297.8a8.6,8.6,0,0,1-2.75-1.855,8.469,8.469,0,0,1-1.863-2.741,8.538,8.538,0,0,1,0-6.618,8.691,8.691,0,0,1,4.613-4.621,8.351,8.351,0,0,1,3.3-.659,6.546,6.546,0,0,1,2.4.369,3.5,3.5,0,0,1,1.5,1.125v-5.308a2.43,2.43,0,0,1,.667-1.74,2.179,2.179,0,0,1,1.652-.685,2.387,2.387,0,0,1,1.67.685,2.538,2.538,0,0,1,.5.782,2.49,2.49,0,0,1,.185.957V289.9a8.379,8.379,0,0,1-.659,3.3,8.629,8.629,0,0,1-4.605,4.6,8.56,8.56,0,0,1-6.608.01Zm4.807-4.332a3.809,3.809,0,0,0,1.248-.826,3.915,3.915,0,0,0,.843-1.248,3.886,3.886,0,0,0,0-2.988,3.935,3.935,0,0,0-.843-1.247,3.815,3.815,0,0,0-1.248-.826,3.92,3.92,0,0,0-1.512-.3A3.88,3.88,0,0,0,285,287.157a4.056,4.056,0,0,0-.853,1.247,3.781,3.781,0,0,0,0,2.988,4.034,4.034,0,0,0,.853,1.248,3.879,3.879,0,0,0,2.724,1.125A3.921,3.921,0,0,0,289.241,293.467Z" transform="translate(-237.434 -274.889)" fill="#fff"/>
        <path id="Pfad_4945" data-name="Pfad 4945" d="M324.778,278.967a2.621,2.621,0,0,1-.553-.808,2.314,2.314,0,0,1-.2-.948,2.427,2.427,0,0,1,.756-1.775,2.392,2.392,0,0,1,1.757-.722,2.552,2.552,0,0,1,.967.185,2.484,2.484,0,0,1,.808,4.068,2.511,2.511,0,0,1-.808.545,2.457,2.457,0,0,1-.967.194A2.4,2.4,0,0,1,324.778,278.967Zm.853,19.131a2.49,2.49,0,0,1-1.275-1.248,2.139,2.139,0,0,1-.192-.888V283.449a2.145,2.145,0,0,1,.192-.887,2.338,2.338,0,0,1,.528-.747,2.31,2.31,0,0,1,.765-.5,2.4,2.4,0,0,1,.923-.185,2.236,2.236,0,0,1,.888.185,2.361,2.361,0,0,1,.746.5,2.162,2.162,0,0,1,.484.739,2.421,2.421,0,0,1,.167.9v12.514a2.229,2.229,0,0,1-.185.888,2.341,2.341,0,0,1-1.24,1.248,2.2,2.2,0,0,1-.9.185A2.263,2.263,0,0,1,325.631,298.1Z" transform="translate(-259.775 -274.714)" fill="#fff"/>
        <path id="Pfad_4946" data-name="Pfad 4946" d="M348.447,303.986a8.6,8.6,0,0,1-2.751-1.855,8.47,8.47,0,0,1-1.863-2.741,8.538,8.538,0,0,1,0-6.618,8.69,8.69,0,0,1,4.614-4.621,8.512,8.512,0,0,1,9.306,1.819,8.631,8.631,0,0,1,2.566,5.974v6.31a2.294,2.294,0,0,1-.686,1.688,2.4,2.4,0,0,1-1.7.7,2.2,2.2,0,0,1-1.969-1.107,8.544,8.544,0,0,1-4.218,1.107A8.347,8.347,0,0,1,348.447,303.986Zm4.807-4.332a3.8,3.8,0,0,0,1.248-.826,3.933,3.933,0,0,0,.844-1.248,3.886,3.886,0,0,0,0-2.988,3.954,3.954,0,0,0-.844-1.247,3.8,3.8,0,0,0-1.248-.826,3.918,3.918,0,0,0-1.512-.3,3.882,3.882,0,0,0-2.725,1.125,4.045,4.045,0,0,0-.852,1.247,3.776,3.776,0,0,0,0,2.988,4.024,4.024,0,0,0,.852,1.248,3.882,3.882,0,0,0,2.725,1.125A3.918,3.918,0,0,0,353.254,299.654Z" transform="translate(-269.307 -281.076)" fill="#fff"/>
        <path id="Pfad_4947" data-name="Pfad 4947" d="M389.338,304.275a2.216,2.216,0,0,1-.756-.492,2.355,2.355,0,0,1-.527-.738,2.131,2.131,0,0,1-.193-.9v-5.906a8.774,8.774,0,0,1,.765-3.347,9.138,9.138,0,0,1,1.942-2.8,9.046,9.046,0,0,1,2.8-1.881,8.841,8.841,0,0,1,3.365-.721h.14a2.415,2.415,0,0,1,1.784.641,2.423,2.423,0,0,1-.061,3.349,2.419,2.419,0,0,1-.782.492,2.559,2.559,0,0,1-.941.176h-.105a4.13,4.13,0,0,0-1.616.352,4.2,4.2,0,0,0-1.336.931,4.37,4.37,0,0,0-.931,1.37,4.281,4.281,0,0,0-.352,1.635v5.712a2.346,2.346,0,0,1-.176.914,2.087,2.087,0,0,1-.493.721,2.2,2.2,0,0,1-1.617.668A2.417,2.417,0,0,1,389.338,304.275Z" transform="translate(-291.561 -281.076)" fill="#fff"/>
        <path id="Pfad_4948" data-name="Pfad 4948" d="M432.352,309.071a2.394,2.394,0,0,1-.739-.5,2.247,2.247,0,0,1-.667-1.652V302.4a6.968,6.968,0,0,1-4.007,1.318,8.514,8.514,0,0,1-3.366-.677,8.839,8.839,0,0,1-4.692-4.693,8.55,8.55,0,0,1-.677-3.383V288.6a2.393,2.393,0,0,1,.185-.922,2.3,2.3,0,0,1,.5-.765,2.257,2.257,0,0,1,1.653-.685,2.339,2.339,0,0,1,.914.185,2.523,2.523,0,0,1,.773.5,2.3,2.3,0,0,1,.5.765,2.393,2.393,0,0,1,.185.922v6.362a3.818,3.818,0,0,0,.317,1.537,4.14,4.14,0,0,0,.878,1.293,4.281,4.281,0,0,0,1.291.887,3.742,3.742,0,0,0,3.05,0,4.239,4.239,0,0,0,1.3-.887,4.143,4.143,0,0,0,.879-1.293,3.818,3.818,0,0,0,.316-1.537V288.6a2.4,2.4,0,0,1,.184-.922,2.3,2.3,0,0,1,.5-.765,2.327,2.327,0,0,1,2.557-.5,2.552,2.552,0,0,1,.764.5,2.412,2.412,0,0,1,.51.765,2.313,2.313,0,0,1,.193.922v18.313a2.234,2.234,0,0,1-.184.9,2.457,2.457,0,0,1-.519.755,2.517,2.517,0,0,1-.782.5,2.4,2.4,0,0,1-.923.185A2.2,2.2,0,0,1,432.352,309.071Z" transform="translate(-306.669 -280.449)" fill="#fff"/>
      </g>
    </g>
    <path id="Pfad_4949" data-name="Pfad 4949" d="M154.785,288.7a10.472,10.472,0,0,0-2.082-.759,50.3,50.3,0,0,1-5.213-2.744c-10.187-5.971-19.257-16.025-21.523-27.926-1.189-6.242-1.721-13.174.417-19.263a37.234,37.234,0,0,1,10.132-14.722,45.227,45.227,0,0,1,7.813-5.753,54.737,54.737,0,0,1,12.446-4.958c-2.981.823-6.466,3.216-8.876,5.045-9.263,7.026-17.309,16.769-15.417,29.053.484,3.113,1.923,7.119,5.3,8.367,3.936,1.454,7.159-2.128,9.549-4.718a62.634,62.634,0,0,1,10.183-9.381c1.829-1.267,4.263-1.888,5.943-3.241-7.729,11.249-13.708,25.723-12.121,39.612A32.628,32.628,0,0,0,154.785,288.7Z" transform="translate(0)" fill="#fff"/>
    <path id="Pfad_4950" data-name="Pfad 4950" d="M161.173,259.459c-2.482,4.849-7.478,7.254-11.159,5.371s-4.663-7.34-2.187-12.188,7.478-7.254,11.159-5.372S163.648,254.609,161.173,259.459Z" transform="translate(-10.721 -16.958)" fill="#fff"/>
  </g>
</svg>
