<svg xmlns="http://www.w3.org/2000/svg" width="1921.19" height="933.787" viewBox="0 0 1921.19 933.787">
  <g id="Gruppe_8220" data-name="Gruppe 8220" transform="translate(0 -6359.245)">
    <path id="Differenzmenge_1" data-name="Differenzmenge 1" d="M1927,974.538h0c-28.582-6.38-57.8-12.377-86.851-17.823-30.176-5.657-60.975-10.872-91.542-15.5-31.709-4.8-64.052-9.106-96.13-12.793-33.211-3.817-67.062-7.08-100.615-9.7-39-3.041-77.343-5.32-113.971-6.776-34.151-1.357-68.028-2.045-100.692-2.045-31,0-60.945.587-91.549,1.8-27.164,1.072-54.152,2.609-82.506,4.7-52.537,3.873-100.9,9.02-147.661,14h-.011c-39.992,4.256-77.765,8.277-117.359,11.487-21.262,1.724-41.04,3.049-60.466,4.052-21.726,1.121-42.516,1.815-63.558,2.122-9.068.131-18.082.2-26.792.2-38.369,0-74.377-1.266-110.081-3.872-36.751-2.682-73.724-6.818-113.033-12.642l-.961-.649c-22.362-3.191-50.881-9.068-92.47-19.056-25.995-6.249-55.412-13.7-86.556-21.59h-.005c-91.117-23.08-204.516-51.8-338.379-77.819V305.66c2.408-2.5,15.655-15.928,40.048-34.389,13.864-10.493,28.947-20.819,44.83-30.69,19.508-12.125,40.368-23.649,62-34.252,54.3-26.614,113.995-47.77,177.42-62.881,18.22-4.341,37-8.236,55.831-11.577,19.779-3.51,40.147-6.5,60.54-8.9,21.352-2.509,43.325-4.431,65.309-5.714,22.95-1.339,46.548-2.018,70.137-2.018,28.806,0,58.472,1.011,88.174,3.007,31.038,2.085,62.98,5.3,94.94,9.563,33.307,4.44,67.56,10.138,101.809,16.934,35.607,7.065,72.206,15.517,108.783,25.12,37.166,9.758,74.3,18.345,110.364,25.525,34.668,6.9,69.28,12.686,102.873,17.193,32.206,4.322,64.34,7.586,95.508,9.7,29.8,2.022,59.5,3.047,88.27,3.047,23.036,0,46.05-.657,68.4-1.952,21.408-1.241,42.779-3.1,63.519-5.527,19.811-2.318,39.566-5.215,58.719-8.61,18.233-3.232,36.4-7,54-11.2,61.271-14.623,118.62-35.1,170.454-60.863A654.193,654.193,0,0,0,1846.78,104c15.085-9.569,29.369-19.58,42.455-29.755,9.725-7.561,18.648-15.1,26.522-22.4,6.229-5.775,9.938-9.686,11.243-11.1V974.537Z" transform="translate(1927 7333.783) rotate(180)" fill="#f5faf9"/>
    <path id="Shape" d="M0,449.831H1920V56.449S1798.92,4.1,1618,4.1c-153.87,0-310.94,106.98-514.62,106.98-152.866,0-300.243-95.107-444.38-86.95-141.351,8-319.93,31.411-423,31.411C92.239,55.538,0,0,0,0Z" transform="translate(0 6843.2)" fill="#1c9d87" fill-rule="evenodd"/>
  </g>
</svg>
