<svg xmlns="http://www.w3.org/2000/svg" width="63.727" height="55.761" viewBox="0 0 63.727 55.761">
  <path id="Icon_awesome-quote-left" data-name="Icon awesome-quote-left" d="M57.753,30.131H47.8V22.165A7.973,7.973,0,0,1,55.761,14.2h1a2.98,2.98,0,0,0,2.987-2.987V5.237A2.98,2.98,0,0,0,56.757,2.25h-1A19.909,19.909,0,0,0,35.846,22.165V52.037a5.976,5.976,0,0,0,5.974,5.974H57.753a5.976,5.976,0,0,0,5.974-5.974V36.1A5.976,5.976,0,0,0,57.753,30.131Zm-35.846,0H11.949V22.165A7.973,7.973,0,0,1,19.915,14.2h1A2.98,2.98,0,0,0,23.9,11.212V5.237A2.98,2.98,0,0,0,20.91,2.25h-1A19.909,19.909,0,0,0,0,22.165V52.037a5.976,5.976,0,0,0,5.974,5.974H21.906a5.976,5.976,0,0,0,5.974-5.974V36.1A5.976,5.976,0,0,0,21.906,30.131Z" transform="translate(0 -2.25)" fill="#1c9d87" opacity="0.25"/>
</svg>
