<svg xmlns="http://www.w3.org/2000/svg" width="128.706" height="123.09" viewBox="0 0 128.706 123.09">
  <g id="Gruppe_8223" data-name="Gruppe 8223" transform="translate(-183.232 -10.158)">
    <path id="Pfad_12173" data-name="Pfad 12173" d="M1.08,53.521C-1.714,70.314-.778,98.114,24.952,99.16s27.207,10.372,44.417,5.136,32.962-46.94,27.056-71.749c-3.165-13.3-32.47-38.2-56.631-31.39C18.989,7.019,2.83,43.005,1.08,53.521Z" transform="translate(183.232 104.064) rotate(-74)" fill="#2ecf96"/>
    <path id="Icon_metro-spoon-fork" data-name="Icon metro-spoon-fork" d="M12.315,1.928c-4.85,0-8.781,4.586-8.781,10.244,0,4.844,2.882,8.9,6.755,9.97l-1.454,23.7a2.726,2.726,0,0,0,2.748,2.921h1.463a2.726,2.726,0,0,0,2.748-2.921l-1.454-23.7c3.873-1.067,6.755-5.125,6.755-9.97C21.1,6.514,17.165,1.928,12.315,1.928Zm29.513,0L39.389,16.563H37.56L36.34,1.928h-1.22L33.9,16.563H32.072L29.633,1.928h-1.22V20.953a1.463,1.463,0,0,0,1.463,1.463h3.811L32.251,45.837A2.726,2.726,0,0,0,35,48.759h1.463a2.726,2.726,0,0,0,2.748-2.921L37.773,22.416h3.811a1.463,1.463,0,0,0,1.463-1.463V1.928Z" transform="translate(224.294 49.09)" fill="#fff"/>
  </g>
</svg>
