<svg xmlns="http://www.w3.org/2000/svg" width="65.961" height="63.083" viewBox="0 0 65.961 63.083">
  <g id="Gruppe_8220" data-name="Gruppe 8220" transform="translate(-6548.5 -7578.594)">
    <path id="Pfad_30493" data-name="Pfad 30493" d="M.553,26.834C-.879,18.228-.4,3.98,12.788,3.444S26.731-1.871,35.551.812,52.444,24.869,49.417,37.583C47.8,44.4,32.777,57.159,20.394,53.67,9.732,50.666,1.45,32.223.553,26.834Z" transform="translate(6600.662 7578.594) rotate(74)" fill="#1c9d87" opacity="0.2"/>
    <path id="Icon_metro-spoon-fork" data-name="Icon metro-spoon-fork" d="M8.035,1.928c-2.485,0-4.5,2.351-4.5,5.25A5.151,5.151,0,0,0,7,12.287L6.252,24.431a1.4,1.4,0,0,0,1.408,1.5h.75a1.4,1.4,0,0,0,1.408-1.5L9.073,12.287a5.151,5.151,0,0,0,3.462-5.109C12.535,4.279,10.52,1.928,8.035,1.928Zm15.125,0-1.25,7.5h-.938l-.625-7.5h-.625l-.625,7.5H18.16l-1.25-7.5h-.625v9.75a.75.75,0,0,0,.75.75h1.953l-.736,12a1.4,1.4,0,0,0,1.408,1.5h.75a1.4,1.4,0,0,0,1.408-1.5l-.736-12h1.953a.75.75,0,0,0,.75-.75V1.928Z" transform="translate(6567.821 7596.207)" fill="#1c9d87"/>
  </g>
</svg>
