<svg xmlns="http://www.w3.org/2000/svg" width="25.517" height="25.511" viewBox="0 0 25.517 25.511">
  <path id="Icon_awesome-instagram" data-name="Icon awesome-instagram" d="M12.756,8.452A6.541,6.541,0,1,0,19.3,14.993,6.53,6.53,0,0,0,12.756,8.452Zm0,10.793a4.252,4.252,0,1,1,4.252-4.252,4.26,4.26,0,0,1-4.252,4.252ZM21.09,8.185a1.526,1.526,0,1,1-1.526-1.526A1.522,1.522,0,0,1,21.09,8.185Zm4.332,1.548a7.55,7.55,0,0,0-2.061-5.345,7.6,7.6,0,0,0-5.345-2.061c-2.106-.12-8.419-.12-10.525,0A7.588,7.588,0,0,0,2.145,4.382,7.574,7.574,0,0,0,.084,9.728c-.12,2.106-.12,8.419,0,10.525A7.55,7.55,0,0,0,2.145,25.6,7.609,7.609,0,0,0,7.49,27.659c2.106.12,8.419.12,10.525,0A7.55,7.55,0,0,0,23.361,25.6a7.6,7.6,0,0,0,2.061-5.345c.12-2.106.12-8.414,0-10.52ZM22.7,22.513a4.305,4.305,0,0,1-2.425,2.425c-1.679.666-5.664.512-7.52.512s-5.846.148-7.52-.512a4.305,4.305,0,0,1-2.425-2.425c-.666-1.679-.512-5.664-.512-7.52s-.148-5.846.512-7.52A4.305,4.305,0,0,1,5.236,5.048c1.679-.666,5.664-.512,7.52-.512s5.846-.148,7.52.512A4.305,4.305,0,0,1,22.7,7.473c.666,1.679.512,5.664.512,7.52S23.367,20.839,22.7,22.513Z" transform="translate(0.005 -2.238)" fill="#7b8781"/>
</svg>
