<svg xmlns="http://www.w3.org/2000/svg" width="308.496" height="339.35" viewBox="0 0 308.496 339.35">
  <g id="Gruppe_8156" data-name="Gruppe 8156" transform="translate(-1512.324 -6253.889)">
    <g id="Gruppe_3674" data-name="Gruppe 3674" transform="translate(1610.687 6298.334)">
      <path id="Pfad_6879" data-name="Pfad 6879" d="M1393.886,699.007c-7.619-4.126-16.823-2.478-22.048,4.3a17.818,17.818,0,0,0-13.9,1.518c-8.114,4.684-13.095,17.8-6.516,24.929,1.6,7.332,4.534,13.123,11.825,13.216,4.306,7.914,17.715,10.224,25.471,2.8,6.768,2.14,14.005-1.732,18.706-7.11,1.109-1.269,2.047-3.266,2.469-3.532.006,0,17.457-3.211,15.872-20.117C1424.1,697.322,1405.717,685.115,1393.886,699.007Z" transform="translate(-1304.31 -657.952)" fill="#142c1f"/>
      <path id="Pfad_6880" data-name="Pfad 6880" d="M1240.466,1510.732a98.975,98.975,0,0,0,2.055,15.353c.1.391,1.354,1.942,1.47,2.345-1.889,9.017-8.119,13.688-13.816,16.849,1.7-4.446,4.873-9.384,4.675-10.451a136.467,136.467,0,0,0-4.559-19.319C1234.7,1515.579,1236.587,1513.027,1240.466,1510.732Z" transform="translate(-1217.562 -1258.087)" fill="#f8a492"/>
      <path id="Pfad_6881" data-name="Pfad 6881" d="M1226.975,1097.525l27.13,21.968s-13.67,13.477-18.8,18.487-30.927,23.06-31.38,24.214a39.756,39.756,0,0,1,1.687,6.414c1.132,9.27,2.41,27.3,2.792,42.758-2.92,3.06-9.242,3.786-13.021,4.748-9.294-19-12.653-55.459-12.61-59.839C1182.843,1149.142,1226.975,1097.525,1226.975,1097.525Z" transform="translate(-1182.773 -954.835)" fill="#2f3e36"/>
      <path id="Pfad_6882" data-name="Pfad 6882" d="M1589.868,1242.849c-1.065.682-9.42,11.093-12.995,16.879-2.761-2.885-4.161-5.875-7.452-8.156,3.777-3.625,11.571-12.653,12.563-15.007,2.353-5.583,3.807-6.143,3.807-6.143s17.289,11.061,18.132,13.212S1594.146,1240.111,1589.868,1242.849Z" transform="translate(-1466.532 -1052.368)" fill="#f8a492"/>
      <path id="Pfad_6883" data-name="Pfad 6883" d="M1613.685,1229.7c-1.454-.34,1.619-6.83,2.3-8.333.762-1.691,1.864-1.99,2.123-2,.7-.014,19.915,12.279,22.857,15.756a4.566,4.566,0,0,1,.54,1.046c1.109,4.213-16.208.86-18.32-1.366C1621.3,1232.828,1620.226,1231.232,1613.685,1229.7Z" transform="translate(-1498.734 -1044.259)" fill="#142c1f"/>
      <path id="Pfad_6884" data-name="Pfad 6884" d="M1326.7,1091.227l25.818-10.937c-.1.043.121,1.02.152,1.092,3.84,8.755,12.856,8.489,17.049,22.689,3.315,11.227,1.467,48.817,1.467,48.817s11.175-8.148,22.905-16.839c1.069-.792,9.465,8.547,9.465,8.547-15.967,26.755-40.663,37.066-43.79,35.831-10.674-4.218-26.537-75.993-26.509-75.988C1331.2,1100.141,1326.7,1091.227,1326.7,1091.227Z" transform="translate(-1288.398 -942.187)" fill="#44554c"/>
      <path id="Pfad_6885" data-name="Pfad 6885" d="M1472.6,820.927s29.373-5.876,35.909-6.783,29.339-8.216,30.215-8.531,4.439-12.214,5.687-11.307-2.127,5.983-.554,6.743,15.34-4.872,15.4-3.723c.115,2.149-8.292,3.782-8.057,4.779s8.609-2.545,9.577-1.022-8.242,2.584-8.433,3.4,8.812.2,8.272,1.944c-.292.947-8.021.352-7.726,1.485s6.152,2.533,5.713,3.588-4.769-1.85-7.835-1.2-5.634-.52-10.2,1.987-19.6,13.294-30.127,15.145-33.776,6-33.776,6Z" transform="translate(-1395.477 -732.268)" fill="#f8a492"/>
      <path id="Pfad_6886" data-name="Pfad 6886" d="M1237.449,646.806s-11.119-27.814-13.929-33.785-9.14-29.064-9.355-29.97,7.807-10.389,6.365-10.939-3.85,5.05-5.345,4.147-4.3-15.511-5.293-14.935c-1.863,1.077,1.36,9.011.4,9.359s-2.569-8.6-4.375-8.582,2.337,8.315,1.753,8.924-4.98-7.272-6.146-5.868c-.633.763,4.085,6.911,2.976,7.283s-5.482-3.77-6.127-2.825,4.154,2.984,5.286,5.907,3.513,4.435,3.9,9.626-.433,23.68,3.767,33.509,13.417,31.573,13.417,31.573Z" transform="translate(-1194.177 -561.307)" fill="#f8a492"/>
      <path id="Pfad_6887" data-name="Pfad 6887" d="M1288.338,884c-.358-5.165-.912-19.1-.673-20.808-1.442-5.375-6.815-13.375-7.936-15.634,0,0,7.479-8.682,12.961-8.555,0,0,5.758,7.754,10.064,10.155a10.412,10.412,0,0,0,2.17.7c4.181.01,18.79-.311,21.507.566l-1.773,23.569c-.8,1.344-2.015,28.452-3.653,30.668s-25.245,12.147-29.116,9.489C1291.734,914.046,1289.061,894.44,1288.338,884Z" transform="translate(-1253.929 -765.106)" fill="#1c9d87"/>
      <path id="Pfad_6888" data-name="Pfad 6888" d="M1427.229,880.536a11.749,11.749,0,0,1,4.444-.686c6.626-.051,17.783-.219,17.783-.219s2.586,14.213.353,17.6c0,0-17.458,2.541-16.976,4.04Z" transform="translate(-1362.178 -794.925)" fill="#1c9d87"/>
      <path id="Pfad_6889" data-name="Pfad 6889" d="M1376.5,835.509s-1.592,8.167-1.321,11.4-1.286,13.617-7.824,13.588-1.113-13.236-.466-16.392.888-12.944.888-12.944Z" transform="translate(-1315.898 -759.349)" fill="#f8a492"/>
      <path id="Pfad_6890" data-name="Pfad 6890" d="M1377.057,836.067c.128-2.677.183-4.91.183-4.91l8.724,4.352s-.325,1.67-.657,3.8A7.5,7.5,0,0,1,1377.057,836.067Z" transform="translate(-1325.357 -759.349)" fill="#f47458"/>
      <path id="Pfad_6891" data-name="Pfad 6891" d="M1380.451,759.67a11.231,11.231,0,0,1,4.552,6.248c1.194,4.256-.318,15.194-9.07,17.752s-12.447-6.151-10.584-12.913S1371.205,755.446,1380.451,759.67Z" transform="translate(-1316.42 -706.059)" fill="#f8a492"/>
      <path id="Pfad_6892" data-name="Pfad 6892" d="M1362.586,784.936c.153,1.823,1.1,3.224,2.117,3.13s1.716-1.648,1.562-3.471-1.1-3.224-2.117-3.13S1362.432,783.113,1362.586,784.936Z" transform="translate(-1314.722 -722.877)" fill="#f8a492"/>
      <path id="Pfad_6893" data-name="Pfad 6893" d="M1236.093,1568.687c.724-1.362,5.677,3.952,6.865,5.054a3.1,3.1,0,0,1,1.23,2.69c-.181.69-16.459,16.883-20.874,18.831a2.277,2.277,0,0,1-1.462-.048c-2.168-1.224,3.373-15.517,6.729-18.037C1230.75,1575.548,1232.837,1574.813,1236.093,1568.687Z" transform="translate(-1211.094 -1300.457)" fill="#142c1f"/>
      <path id="Pfad_6894" data-name="Pfad 6894" d="M1419.572,760.658s1.463,12.233,5.222,14.475,2.123,7.646,2.123,7.646,3.551-12.552.6-16.623A16.526,16.526,0,0,0,1419.572,760.658Z" transform="translate(-1356.559 -707.61)" fill="#142c1f"/>
      <path id="Pfad_6895" data-name="Pfad 6895" d="M1428.54,816.515c-1.041,1.581-1.055,3.459-.032,4.193s2.695.047,3.735-1.536,1.055-3.459.032-4.193S1429.581,814.933,1428.54,816.515Z" transform="translate(-1362.561 -747.261)" fill="#f8a492"/>
    </g>
    <g id="Gruppe_3678" data-name="Gruppe 3678" transform="translate(1512.324 6253.889)">
      <path id="Pfad_12175" data-name="Pfad 12175" d="M625.063,476.208,620.1,464.653l-12.33-2.463a1.728,1.728,0,0,1-.8-2.993l9.457-8.289-1.469-12.489a1.729,1.729,0,0,1,2.6-1.687l10.8,6.432,11.423-5.255a1.728,1.728,0,0,1,2.408,1.952l-2.778,12.264,8.529,9.241a1.728,1.728,0,0,1-1.113,2.892l-12.522,1.148-6.154,10.965A1.728,1.728,0,0,1,625.063,476.208Z" transform="translate(-606.38 -242.129)" fill="#1c9d87" opacity="0.1"/>
      <path id="Pfad_12176" data-name="Pfad 12176" d="M1459.8,395.4l5.7-6.107-3.166-2.1a1.5,1.5,0,0,1-.424-2.084h0a1.5,1.5,0,0,1,2.084-.424l3.651,2.416,5.1-5.488-3.381-2.238a1.5,1.5,0,0,1-.424-2.085h0a1.5,1.5,0,0,1,2.084-.424l3.867,2.559,5.908-6.272a1.5,1.5,0,0,1,1.925-.223l.59.391a1.5,1.5,0,0,1,.272,2.279l-5.515,5.929,5.605,3.711,5.908-6.271a1.5,1.5,0,0,1,1.925-.222l.644.426a1.5,1.5,0,0,1,.271,2.279l-5.515,5.93,3.166,2.1a1.5,1.5,0,0,1,.424,2.085h0a1.5,1.5,0,0,1-2.084.424l-3.651-2.416-5.05,5.523,3.381,2.238a1.5,1.5,0,0,1,.424,2.085h0a1.5,1.5,0,0,1-2.084.424l-3.866-2.559-6.049,6.476a1.5,1.5,0,0,1-1.929.228l-.691-.458a1.5,1.5,0,0,1-.268-2.281l5.7-6.106-5.606-3.71-6.049,6.476a1.5,1.5,0,0,1-1.93.228l-.69-.457A1.5,1.5,0,0,1,1459.8,395.4Zm16.69-2.443,5.1-5.488-5.606-3.71-5.105,5.488Z" transform="translate(-1231.368 -202.119)" fill="#f8a492" opacity="0.5"/>
      <g id="Gruppe_3677" data-name="Gruppe 3677" transform="translate(110.939)" opacity="0.5">
        <path id="Pfad_6854" data-name="Pfad 6854" d="M1017.78,312.239a7.973,7.973,0,0,1,5.858-3.524,6.173,6.173,0,0,1,6.882,5.6c.44,3.917-2.474,8.937-10.939,13.967-9.369-3.027-13.324-7.276-13.764-11.193a6.173,6.173,0,0,1,5.469-6.984A7.975,7.975,0,0,1,1017.78,312.239Z" transform="translate(-986.527 -295.974)" fill="#f8a492"/>
        <g id="Gruppe_2797" data-name="Gruppe 2797" transform="translate(0 18.63)">
          <path id="Pfad_6855" data-name="Pfad 6855" d="M926.5,336.048a82.263,82.263,0,0,0,9.4-.038c.944-.058,2.6.121,3.2-.729a1,1,0,0,0-.07-1.362c-.743-.742-2.147-.347-3.1-.289-2.9.176-6.192.238-9.521.108a1.166,1.166,0,0,0-1.111,1.2,1.181,1.181,0,0,0,1.2,1.111Z" transform="translate(-925.298 -333.472)" fill="#f8a492"/>
        </g>
        <g id="Gruppe_2798" data-name="Gruppe 2798" transform="translate(48.915 22.931)">
          <path id="Pfad_6856" data-name="Pfad 6856" d="M1130.98,354.25c1.389-.061,2.776-.148,4.164-.23a12.741,12.741,0,0,0,4.142-.468,1,1,0,0,0-.078-1.919,12.584,12.584,0,0,0-4.155.028c-1.389.087-2.776.17-4.163.278a1.157,1.157,0,0,0,.089,2.311Z" transform="translate(-1129.82 -351.453)" fill="#f8a492"/>
        </g>
        <g id="Gruppe_2799" data-name="Gruppe 2799" transform="translate(12.89 31.659)">
          <path id="Pfad_6857" data-name="Pfad 6857" d="M981.374,394.912c1.571-3.024,3.64-4.048,5.2-5.264a.936.936,0,0,0-.774-1.675c-2.882.627-5.2,3.376-6.471,5.887a1.152,1.152,0,0,0,2.049,1.052Z" transform="translate(-979.192 -387.946)" fill="#f8a492"/>
        </g>
        <g id="Gruppe_2800" data-name="Gruppe 2800" transform="translate(29.108 37.238)">
          <path id="Pfad_6858" data-name="Pfad 6858" d="M1049.393,419.063a10.227,10.227,0,0,1,.45-4.212c.276-.837,1.8-3.215.143-3.55-1.558-.315-2.24,2.257-2.545,3.344a12.082,12.082,0,0,0-.37,4.508c.157,1.479,2.464,1.4,2.321-.09Z" transform="translate(-1047.005 -411.274)" fill="#f8a492"/>
        </g>
        <g id="Gruppe_2801" data-name="Gruppe 2801" transform="translate(42.127 33.382)">
          <path id="Pfad_6859" data-name="Pfad 6859" d="M1102.075,397.386l2.411,1.548c.8.515,1.586,1.286,2.59,1.021a1.023,1.023,0,0,0,.66-1.248c-.172-.93-1.434-1.414-2.169-1.88l-2.418-1.533a1.185,1.185,0,0,0-1.583.509,1.2,1.2,0,0,0,.509,1.583Z" transform="translate(-1101.437 -395.154)" fill="#f8a492"/>
        </g>
        <g id="Gruppe_2802" data-name="Gruppe 2802" transform="translate(15.605 0.546)">
          <path id="Pfad_6860" data-name="Pfad 6860" d="M996.16,265.614c-3.352-6.923-3.3-6.962-3.924-7.512a1.024,1.024,0,0,0-1.69.791c.047.874.054.729,3.608,8a1.2,1.2,0,0,0,1.643.363,1.218,1.218,0,0,0,.364-1.643Z" transform="translate(-990.544 -257.857)" fill="#f8a492"/>
        </g>
        <g id="Gruppe_2803" data-name="Gruppe 2803" transform="translate(31.594)">
          <path id="Pfad_6861" data-name="Pfad 6861" d="M1059.684,263.079a17.659,17.659,0,0,0,.786-3.7c.121-1.172.464-2.952-.661-3.7a.876.876,0,0,0-.9.042c-.948.725-.653,2.294-.769,3.374a20.856,20.856,0,0,1-.7,3.483,1.163,1.163,0,0,0,.875,1.373,1.178,1.178,0,0,0,1.374-.875Z" transform="translate(-1057.4 -255.576)" fill="#f8a492"/>
        </g>
        <g id="Gruppe_2804" data-name="Gruppe 2804" transform="translate(45.265 6.387)">
          <path id="Pfad_6862" data-name="Pfad 6862" d="M1121.111,283.542a1.023,1.023,0,0,0-.762-1.2c-.978-.324-2.181.675-2.958,1.2a20.243,20.243,0,0,0-2.536,2.038,1.173,1.173,0,0,0,.084,1.641,1.191,1.191,0,0,0,1.641-.084C1119.682,284.438,1120.677,284.905,1121.111,283.542Z" transform="translate(-1114.558 -282.283)" fill="#f8a492"/>
        </g>
      </g>
      <path id="Pfad_12177" data-name="Pfad 12177" d="M1667.517,486.692l-6.881,7.89-11.94-4.3-11.265,10.9-10.146-1.591-3.007,5.316,13.568,2.126,10.676-10.327,12.42,4.477L1671.3,489.3Z" transform="translate(-1362.806 -450.673)" fill="#44554c" opacity="0.15"/>
      <path id="Pfad_12178" data-name="Pfad 12178" d="M388.9,439.006c-7.434,10.412-.57,25.548,10.158,30.421,11.859,5.387,26.618,1.227,34.345-9.116,8.363-11.2,6.291-24.868-4.544-31.85-10.546-6.8-22.868-.787-25.013,10.818-1.538,8.32,3.513,14.45,7.828,14.249,3.364-.158,5.28-4.086,2.568-6.422a3.612,3.612,0,0,0-3.893-.338c-2.118-2.52-2.041-8.8,2.549-13.164,5.863-5.568,14.622-1.351,18.236,4.663,4.6,7.654,1.006,16.873-5.183,22.429-6.5,5.833-16.67,7.706-24.7,4.091a18.41,18.41,0,0,1-9.194-24.069A1.8,1.8,0,0,0,388.9,439.006Z" transform="translate(-364.772 -347.35)" fill="#96d9c9" opacity="0.5"/>
    </g>
  </g>
</svg>
