<svg xmlns="http://www.w3.org/2000/svg" width="1917.81" height="2415.345" viewBox="0 0 1917.81 2415.345">
  <path id="Differenzmenge_17" data-name="Differenzmenge 17" d="M1917.81,2415.345H0V207.248c67.249-9.8,127.6-20.21,180.84-29.4l.016,0c32.378-5.586,62.96-10.862,89.921-15.082,43.132-6.735,72.5-10.066,95.226-10.8l1.084-.709c16.7-.658,33.218-.991,49.1-.991,34.44,0,67.418,1.516,100.817,4.634,32.148,3,64.878,7.511,100.061,13.787,20.7,3.695,41.061,7.863,62.258,12.742,18.953,4.363,38.189,9.209,58.806,14.817,38.392,10.441,74.819,21.672,113.386,33.562l.007,0c67.557,20.828,137.414,42.365,221.347,60.353,21.7,4.649,43.818,8.94,65.753,12.753,23.544,4.092,47.8,7.8,72.088,11.008,25.766,3.408,52.516,6.388,79.508,8.858,28.395,2.6,58.006,4.718,88.012,6.3,36.344,1.918,73.143,2.891,109.374,2.89,38.78,0,78-1.115,116.585-3.312,36.9-2.1,74.173-5.247,110.78-9.351,34.913-3.913,70.123-8.8,104.649-14.519,32.821-5.438,65.859-11.769,98.194-18.817V2415.345Z" transform="translate(0)" fill="#fff"/>
</svg>
